<?xml version="1.0" encoding="utf-8"?>
<!-- Generator: Adobe Illustrator 21.0.2, SVG Export Plug-In . SVG Version: 6.00 Build 0)  -->
<svg version="1.1" id="Flat_x5F_Circle_x5F_PROJECT"
	 xmlns="http://www.w3.org/2000/svg" xmlns:xlink="http://www.w3.org/1999/xlink" x="0px" y="0px" viewBox="0 0 1920 4453"
	 style="enable-background:new 0 0 1920 4453;" xml:space="preserve">
<style type="text/css">
	.st0{fill:#0099FF;}
	.st1{fill:#FFFFFF;}
	.st2{font-family:'ArialMT';}
	.st3{font-size:45.3585px;}
	.st4{font-family:'MyriadPro-Regular';}
</style>
<rect id="BG" y="1841" class="st0" width="1920" height="1140"/>
<g id="Flat_x5F_Circle_x5F_logo_x5F_BLACK">
	<g>
		<g id="text_10_">
			<path id="E_10_" d="M1397,4112c-28.7,0-47.5-16.5-47.5-45.4c0-27.2,17.2-45.4,43.6-45.4c24.7,0,38.9,15.5,38.9,40.4v12h-55.4
				c1.5,8.9,7.9,13.5,23.6,13.5c12.9,0,23.9-4.1,31-7.4v22.8C1425.2,4107.5,1411.4,4112,1397,4112z M1376.4,4057.2h29.7
				c0-7.6-4-13.9-14.7-13.9C1381.5,4043.4,1377.1,4049.6,1376.4,4057.2z"/>
			<path id="I_21_" d="M1336.3,3993.6v116.8h-26.4v-113.5L1336.3,3993.6z"/>
			<path id="C_21_" d="M1296.7,4055.3c-8.6-5.9-18.5-9.2-28.5-9.2c-13.4,0-21.6,7.9-21.6,20.6c0,12.2,8.2,20.6,21.4,20.6
				c10.2,0,20.1-3.3,28.7-9.2v26.2c-7.6,5.1-18.3,7.8-29.9,7.8c-26.9,0-47-19.6-47-45.4c0-26.6,20.5-45.4,47.3-45.4
				c11.4,0,21.9,2.5,29.5,7.8V4055.3z"/>
			<path id="R_10_" d="M1177,4022.9v10.4c6.4-5.9,16.8-12,28-12c2.8,0,5.6,0.5,8.2,1.3v28.2c-4.1-2.1-10.6-4-17.5-4
				c-6.6,0-12.7,1.5-17.2,3.5v60h-26.4v-87.4H1177z"/>
			<path id="I_20_" d="M1104.2,4001.5c0-8.4,6.6-13.2,17.5-13.2c11.1,0,17.3,4.8,17.3,13.2c0,8.4-6.3,13.4-17.3,13.4
				C1110.8,4014.8,1104.2,4009.9,1104.2,4001.5z M1134.7,4022.9v87.4h-26.4v-87.4H1134.7z"/>
			<path id="C_20_" d="M997.3,4053.8c0-34.5,25.9-58.6,61.2-58.6c16.8,0,26.9,4,35.8,8.9v28.7c-7.4-5.4-19-11.2-34.1-11.2
				c-19.8,0-33.2,12.4-33.2,32.2c0,19.8,13.4,32.2,33.2,32.2c15.2,0,26.7-5.8,34.1-11.2v28.7c-8.9,4.9-19,8.9-35.8,8.9
				C1023.2,4112.3,997.3,4088.2,997.3,4053.8z"/>
			<path id="T_10_" d="M966.9,4112c-12.2,0-24.2-4.8-24.2-24.7v-54.9h-13.5v-2.8l21.4-23.1h2.6v16.5h32.5v9.4h-32.5v54.1
				c0,11.2,5.8,15.8,15.7,15.8c7.3,0,13.5-2.5,17.7-5.3v9.6C982.6,4109.2,976,4112,966.9,4112z"/>
			<path id="A_10_" d="M878.2,4031.5c-14.5,0-26.1,7.1-33.3,14.8v-11.2c5.6-6.1,18.5-13.9,34.3-13.9c17.7,0,33.7,9.2,33.7,34.1v54.9
				h-9.7v-13.2c-7.1,7.8-18.1,14.8-31.8,14.8c-17.8,0-27.1-9.1-27.1-22.6c0-15,13.9-26.6,37.8-26.6c8.9,0,16.2,1.5,20.5,3v-10.6
				C902.4,4037.9,890.9,4031.5,878.2,4031.5z M902.4,4090.2v-17.2c-4.3-1.3-11.2-2.6-17.5-2.6c-20.8,0-30.7,7.9-30.7,18.5
				c0,10.4,8.1,14.5,18.3,14.5C884.3,4103.4,894.7,4097.3,902.4,4090.2z"/>
			<path id="L_10_" d="M822.9,3994.7v115.6h-10.6v-113.5L822.9,3994.7z"/>
			<path id="F_10_" d="M793.6,3996.9v10.2h-67.1v43.7h58.9v10.2h-58.9v49.3h-10.9v-113.5H793.6z"/>
		</g>
		<g id="icon_14_">
			<g id="FLAT_x5F_circle_20_">
				<rect x="506.5" y="4088.1" width="189.2" height="23.6"/>
			</g>
			<g id="middle_x5F_circle_20_">
				<g>
					<path d="M684.4,3998.7c-3.6,5.1-7.7,9.8-12.2,14.1c3.1,4,4.7,8.2,4.7,12.3c0,18.1-32.6,38.4-76.3,38.4
						c-43.7,0-76.3-20.3-76.3-38.4c0-4.2,1.8-8.6,5-12.7c-4.4-4.3-8.5-9.1-12.1-14.2c-7.2,8-11.3,17.2-11.3,26.9
						c0,31.3,42.3,56.8,94.6,56.8c52.2,0,94.6-25.4,94.6-56.8C695.3,4015.5,691.4,4006.5,684.4,3998.7z M565.7,3991.3
						c10.4-2.9,22.2-4.7,35-4.7c13,0,25.1,1.8,35.6,4.8c5.8-3.9,10.9-8.7,15.1-14.3c-14.6-5.6-32-8.8-50.7-8.8
						c-18.4,0-35.5,3.2-50.1,8.6C554.8,3982.5,559.9,3987.3,565.7,3991.3z"/>
				</g>
			</g>
			<path id="upper_x5F_circle_14_" d="M507.2,3917.8c-1.6,6.9-2.4,14-2.4,21.3c0,52.2,42.3,94.6,94.6,94.6
				c52.2,0,94.6-42.3,94.6-94.6c0-52.2-42.3-94.6-94.6-94.6c-35.1,0-65.8,19.1-82.1,47.5l18.3-6.9l5.3,14
				c12.8-18.7,34.3-30.9,58.5-30.9c39.1,0,70.9,31.8,70.9,70.9c0,39.1-31.8,70.9-70.9,70.9s-70.9-31.8-70.9-70.9
				c0-3.9,0.3-7.6,0.9-11.3l18.6,8.4l-1-2.8l-10.3-27.3l-5.2-13.7l-17.8,6.7l-23.3,8.8l-2.8,1L507.2,3917.8z"/>
		</g>
	</g>
</g>
<g id="icon_x5F_BLACK">
	<g>
		<g id="FLAT_x5F_circle_18_">
			<rect x="877.5" y="3574.1" width="189.2" height="23.6"/>
		</g>
		<g id="middle_x5F_circle_18_">
			<g>
				<path d="M1055.4,3484.7c-3.6,5.1-7.7,9.8-12.2,14.1c3.1,4,4.7,8.2,4.7,12.3c0,18.1-32.6,38.4-76.3,38.4
					c-43.7,0-76.3-20.3-76.3-38.4c0-4.2,1.8-8.6,5-12.7c-4.4-4.3-8.5-9.1-12.1-14.2c-7.2,8-11.3,17.2-11.3,26.9
					c0,31.3,42.3,56.8,94.6,56.8c52.2,0,94.6-25.4,94.6-56.8C1066.3,3501.5,1062.4,3492.5,1055.4,3484.7z M936.7,3477.3
					c10.4-2.9,22.2-4.7,35-4.7c13,0,25.1,1.8,35.6,4.8c5.8-3.9,10.9-8.7,15.1-14.3c-14.6-5.6-32-8.8-50.7-8.8
					c-18.4,0-35.5,3.2-50.1,8.6C925.8,3468.5,930.9,3473.3,936.7,3477.3z"/>
			</g>
		</g>
		<path id="upper_x5F_circle_13_" d="M878.2,3403.8c-1.6,6.9-2.4,14-2.4,21.3c0,52.2,42.3,94.6,94.6,94.6
			c52.2,0,94.6-42.3,94.6-94.6c0-52.2-42.3-94.6-94.6-94.6c-35.1,0-65.8,19.1-82.1,47.5l18.3-6.9l5.3,14
			c12.8-18.7,34.3-30.9,58.5-30.9c39.1,0,70.9,31.8,70.9,70.9c0,39.1-31.8,70.9-70.9,70.9s-70.9-31.8-70.9-70.9
			c0-3.9,0.3-7.6,0.9-11.3l18.6,8.4l-1-2.8l-10.3-27.3l-5.2-13.7l-17.8,6.7l-23.3,8.8l-2.8,1L878.2,3403.8z"/>
	</g>
</g>
<g id="Flat_x5F_Circle_x5F_logo_x5F_WHITE">
	<g id="text_1_">
		<path id="E_1_" class="st1" d="M1421,2772c-28.7,0-47.5-16.5-47.5-45.4c0-27.2,17.2-45.4,43.6-45.4c24.7,0,38.9,15.5,38.9,40.4v12
			h-55.4c1.5,8.9,7.9,13.5,23.6,13.5c12.9,0,23.9-4.1,31-7.4v22.8C1449.2,2767.5,1435.4,2772,1421,2772z M1400.4,2717.2h29.7
			c0-7.6-4-13.9-14.7-13.9C1405.5,2703.4,1401.1,2709.6,1400.4,2717.2z"/>
		<path id="I_3_" class="st1" d="M1360.3,2653.6v116.8h-26.4v-113.5L1360.3,2653.6z"/>
		<path id="C_3_" class="st1" d="M1320.7,2715.3c-8.6-5.9-18.5-9.2-28.5-9.2c-13.4,0-21.6,7.9-21.6,20.6c0,12.2,8.2,20.6,21.4,20.6
			c10.2,0,20.1-3.3,28.7-9.2v26.2c-7.6,5.1-18.3,7.8-29.9,7.8c-26.9,0-47-19.6-47-45.4c0-26.6,20.5-45.4,47.3-45.4
			c11.4,0,21.9,2.5,29.5,7.8V2715.3z"/>
		<path id="R_1_" class="st1" d="M1201,2682.9v10.4c6.4-5.9,16.8-12,28-12c2.8,0,5.6,0.5,8.2,1.3v28.2c-4.1-2.1-10.6-4-17.5-4
			c-6.6,0-12.7,1.5-17.2,3.5v60h-26.4v-87.4H1201z"/>
		<path id="I_2_" class="st1" d="M1128.2,2661.5c0-8.4,6.6-13.2,17.5-13.2c11.1,0,17.3,4.8,17.3,13.2c0,8.4-6.3,13.4-17.3,13.4
			C1134.8,2674.8,1128.2,2669.9,1128.2,2661.5z M1158.7,2682.9v87.4h-26.4v-87.4H1158.7z"/>
		<path id="C_2_" class="st1" d="M1021.3,2713.8c0-34.5,25.9-58.6,61.2-58.6c16.8,0,26.9,4,35.8,8.9v28.7
			c-7.4-5.4-19-11.2-34.1-11.2c-19.8,0-33.2,12.4-33.2,32.2c0,19.8,13.4,32.2,33.2,32.2c15.2,0,26.7-5.8,34.1-11.2v28.7
			c-8.9,4.9-19,8.9-35.8,8.9C1047.2,2772.3,1021.3,2748.2,1021.3,2713.8z"/>
		<path id="T_1_" class="st1" d="M990.9,2772c-12.2,0-24.2-4.8-24.2-24.7v-54.9h-13.5v-2.8l21.4-23.1h2.6v16.5h32.5v9.4h-32.5v54.1
			c0,11.2,5.8,15.8,15.7,15.8c7.3,0,13.5-2.5,17.7-5.3v9.6C1006.6,2769.2,1000,2772,990.9,2772z"/>
		<path id="A_1_" class="st1" d="M902.2,2691.5c-14.5,0-26.1,7.1-33.3,14.8v-11.2c5.6-6.1,18.5-13.9,34.3-13.9
			c17.7,0,33.7,9.2,33.7,34.1v54.9h-9.7v-13.2c-7.1,7.8-18.1,14.8-31.8,14.8c-17.8,0-27.1-9.1-27.1-22.6c0-15,13.9-26.6,37.8-26.6
			c8.9,0,16.2,1.5,20.5,3v-10.6C926.4,2697.9,914.9,2691.5,902.2,2691.5z M926.4,2750.2v-17.2c-4.3-1.3-11.2-2.6-17.5-2.6
			c-20.8,0-30.7,7.9-30.7,18.5c0,10.4,8.1,14.5,18.3,14.5C908.3,2763.4,918.7,2757.3,926.4,2750.2z"/>
		<path id="L_1_" class="st1" d="M846.9,2654.7v115.6h-10.6v-113.5L846.9,2654.7z"/>
		<path id="F_1_" class="st1" d="M817.6,2656.9v10.2h-67.1v43.7h58.9v10.2h-58.9v49.3h-10.9v-113.5H817.6z"/>
	</g>
	<g id="icon_3_">
		<rect id="FLAT_x5F_circle_6_" x="530.5" y="2748.1" class="st1" width="189.2" height="23.6"/>
		<path id="middle_x5F_circle_6_" class="st1" d="M708.4,2658.7c-3.6,5.1-7.7,9.8-12.2,14.1c3.1,4,4.7,8.2,4.7,12.3
			c0,18.1-32.6,38.4-76.3,38.4c-43.7,0-76.3-20.3-76.3-38.4c0-4.2,1.8-8.6,5-12.7c-4.4-4.3-8.5-9.1-12.1-14.2
			c-7.2,8-11.3,17.2-11.3,26.9c0,31.3,42.3,56.8,94.6,56.8c52.2,0,94.6-25.4,94.6-56.8C719.3,2675.5,715.4,2666.5,708.4,2658.7z
			 M589.7,2651.3c10.4-2.9,22.2-4.7,35-4.7c13,0,25.1,1.8,35.6,4.8c5.8-3.9,10.9-8.7,15.1-14.3c-14.6-5.6-32-8.8-50.7-8.8
			c-18.4,0-35.5,3.2-50.1,8.6C578.8,2642.5,583.9,2647.3,589.7,2651.3z"/>
		<path id="upper_x5F_circle_3_" class="st1" d="M531.2,2577.8c-1.6,6.9-2.4,14-2.4,21.3c0,52.2,42.3,94.6,94.6,94.6
			c52.2,0,94.6-42.3,94.6-94.6c0-52.2-42.3-94.6-94.6-94.6c-35.1,0-65.8,19.1-82.1,47.5l18.3-6.9l5.3,14
			c12.8-18.7,34.3-30.9,58.5-30.9c39.1,0,70.9,31.8,70.9,70.9c0,39.1-31.8,70.9-70.9,70.9s-70.9-31.8-70.9-70.9
			c0-3.9,0.3-7.6,0.9-11.3l18.6,8.4l-1-2.8l-10.3-27.3l-5.2-13.7l-17.8,6.7l-23.3,8.8l-2.8,1L531.2,2577.8z"/>
	</g>
</g>
<g id="icon_x5F_WHITE">
	<rect id="FLAT_x5F_circle_4_" x="901.5" y="2234.1" class="st1" width="189.2" height="23.6"/>
	<path id="middle_x5F_circle_4_" class="st1" d="M1079.4,2144.7c-3.6,5.1-7.7,9.8-12.2,14.1c3.1,4,4.7,8.2,4.7,12.3
		c0,18.1-32.6,38.4-76.3,38.4c-43.7,0-76.3-20.3-76.3-38.4c0-4.2,1.8-8.6,5-12.7c-4.4-4.3-8.5-9.1-12.1-14.2
		c-7.2,8-11.3,17.2-11.3,26.9c0,31.3,42.3,56.8,94.6,56.8c52.2,0,94.6-25.4,94.6-56.8C1090.3,2161.5,1086.4,2152.5,1079.4,2144.7z
		 M960.7,2137.3c10.4-2.9,22.2-4.7,35-4.7c13,0,25.1,1.8,35.6,4.8c5.8-3.9,10.9-8.7,15.1-14.3c-14.6-5.6-32-8.8-50.7-8.8
		c-18.4,0-35.5,3.2-50.1,8.6C949.8,2128.5,954.9,2133.3,960.7,2137.3z"/>
	<path id="upper_x5F_circle_2_" class="st1" d="M902.2,2063.8c-1.6,6.9-2.4,14-2.4,21.3c0,52.2,42.3,94.6,94.6,94.6
		c52.2,0,94.6-42.3,94.6-94.6c0-52.2-42.3-94.6-94.6-94.6c-35.1,0-65.8,19.1-82.1,47.5l18.3-6.9l5.3,14
		c12.8-18.7,34.3-30.9,58.5-30.9c39.1,0,70.9,31.8,70.9,70.9c0,39.1-31.8,70.9-70.9,70.9c-39.1,0-70.9-31.8-70.9-70.9
		c0-3.9,0.3-7.6,0.9-11.3l18.6,8.4l-1-2.8l-10.3-27.3l-5.2-13.7l-17.8,6.7l-23.3,8.8l-2.8,1L902.2,2063.8z"/>
</g>
<g id="COLOR_x5F_INFO">
	<g id="BLUE">
		<circle class="st0" cx="536.5" cy="1331.8" r="70.5"/>
		<text transform="matrix(1 0 0 1 641.8789 1343.9019)" class="st0 st2 st3">Blue Color </text>
		<text transform="matrix(1 0 0 1 641.8789 1403.813)" class="st0 st2 st3">#0099ff</text>
		<text transform="matrix(1 0 0 1 641.8789 1492.813)" class="st0 st2 st3">R 0</text>
		<text transform="matrix(1 0 0 1 641.8789 1551.813)" class="st0 st2 st3">G 153</text>
		<text transform="matrix(1 0 0 1 641.8789 1610.813)" class="st0 st2 st3">B 255</text>
	</g>
	<g id="BLACK">
		<circle cx="1054.5" cy="1331.8" r="70.5"/>
		<text transform="matrix(1 0 0 1 1168.8789 1403.813)" class="st2 st3">#000000</text>
		<text transform="matrix(1 0 0 1 1168.8789 1492.813)" class="st2 st3">R 0</text>
		<text transform="matrix(1 0 0 1 1168.8789 1551.813)" class="st2 st3">G 0</text>
		<text transform="matrix(1 0 0 1 1168.8789 1610.813)" class="st2 st3">B 0</text>
		<text transform="matrix(1 0 0 1 1168.8789 1345.1167)" class="st4 st3">Black Color </text>
	</g>
	<rect id="LINE" x="917" y="1227" width="6" height="399"/>
</g>
<g id="Flat_x5F_Circle_x5F_logo">
	<g id="text">
		<path id="E" class="st0" d="M1357,925c-28.7,0-47.5-16.5-47.5-45.4c0-27.2,17.2-45.4,43.6-45.4c24.7,0,38.9,15.5,38.9,40.4v12
			h-55.4c1.5,8.9,7.9,13.5,23.6,13.5c12.9,0,23.9-4.1,31-7.4v22.8C1385.2,920.5,1371.4,925,1357,925z M1336.4,870.2h29.7
			c0-7.6-4-13.9-14.7-13.9C1341.5,856.4,1337.1,862.6,1336.4,870.2z"/>
		<path id="I_1_" class="st0" d="M1296.3,806.6v116.8h-26.4V809.9L1296.3,806.6z"/>
		<path id="C_1_" class="st0" d="M1256.7,868.3c-8.6-5.9-18.5-9.2-28.5-9.2c-13.4,0-21.6,7.9-21.6,20.6c0,12.2,8.2,20.6,21.4,20.6
			c10.2,0,20.1-3.3,28.7-9.2v26.2c-7.6,5.1-18.3,7.8-29.9,7.8c-26.9,0-47-19.6-47-45.4c0-26.6,20.5-45.4,47.3-45.4
			c11.4,0,21.9,2.5,29.5,7.8V868.3z"/>
		<path id="R" class="st0" d="M1137,835.9v10.4c6.4-5.9,16.8-12,28-12c2.8,0,5.6,0.5,8.2,1.3v28.2c-4.1-2.1-10.6-4-17.5-4
			c-6.6,0-12.7,1.5-17.2,3.5v60h-26.4v-87.4H1137z"/>
		<path id="I" class="st0" d="M1064.2,814.5c0-8.4,6.6-13.2,17.5-13.2c11.1,0,17.3,4.8,17.3,13.2s-6.3,13.4-17.3,13.4
			C1070.8,827.8,1064.2,822.9,1064.2,814.5z M1094.7,835.9v87.4h-26.4v-87.4H1094.7z"/>
		<path id="C" class="st0" d="M957.3,866.8c0-34.5,25.9-58.6,61.2-58.6c16.8,0,26.9,4,35.8,8.9v28.7c-7.4-5.4-19-11.2-34.1-11.2
			c-19.8,0-33.2,12.4-33.2,32.2c0,19.8,13.4,32.2,33.2,32.2c15.2,0,26.7-5.8,34.1-11.2v28.7c-8.9,4.9-19,8.9-35.8,8.9
			C983.2,925.3,957.3,901.2,957.3,866.8z"/>
		<path id="T" d="M926.9,925c-12.2,0-24.2-4.8-24.2-24.7v-54.9h-13.5v-2.8l21.4-23.1h2.6v16.5h32.5v9.4h-32.5v54.1
			c0,11.2,5.8,15.8,15.7,15.8c7.3,0,13.5-2.5,17.7-5.3v9.6C942.6,922.2,936,925,926.9,925z"/>
		<path id="A" d="M838.2,844.5c-14.5,0-26.1,7.1-33.3,14.8v-11.2c5.6-6.1,18.5-13.9,34.3-13.9c17.7,0,33.7,9.2,33.7,34.1v54.9h-9.7
			v-13.2C856,917.9,845,925,831.3,925c-17.8,0-27.1-9.1-27.1-22.6c0-15,13.9-26.6,37.8-26.6c8.9,0,16.2,1.5,20.5,3v-10.6
			C862.4,850.9,850.9,844.5,838.2,844.5z M862.4,903.2v-17.2c-4.3-1.3-11.2-2.6-17.5-2.6c-20.8,0-30.7,7.9-30.7,18.5
			c0,10.4,8.1,14.5,18.3,14.5C844.3,916.4,854.7,910.3,862.4,903.2z"/>
		<path id="L" d="M782.9,807.7v115.6h-10.6V809.9L782.9,807.7z"/>
		<path id="F" d="M753.6,809.9v10.2h-67.1v43.7h58.9V874h-58.9v49.3h-10.9V809.9H753.6z"/>
	</g>
	<g id="icon">
		<rect id="FLAT_x5F_circle" x="466.5" y="901.1" width="189.2" height="23.6"/>
		<path id="middle_x5F_circle" d="M644.4,811.7c-3.6,5.1-7.7,9.8-12.2,14.1c3.1,4,4.7,8.2,4.7,12.3c0,18.1-32.6,38.4-76.3,38.4
			c-43.7,0-76.3-20.3-76.3-38.4c0-4.2,1.8-8.6,5-12.7c-4.4-4.3-8.5-9.1-12.1-14.2c-7.2,8-11.3,17.2-11.3,26.9
			c0,31.3,42.3,56.8,94.6,56.8c52.2,0,94.6-25.4,94.6-56.8C655.3,828.5,651.4,819.5,644.4,811.7z M525.7,804.3
			c10.4-2.9,22.2-4.7,35-4.7c13,0,25.1,1.8,35.6,4.8c5.8-3.9,10.9-8.7,15.1-14.3c-14.6-5.6-32-8.8-50.7-8.8
			c-18.4,0-35.5,3.2-50.1,8.6C514.8,795.5,519.9,800.3,525.7,804.3z"/>
		<path id="upper_x5F_circle" class="st0" d="M467.2,730.8c-1.6,6.9-2.4,14-2.4,21.3c0,52.2,42.3,94.6,94.6,94.6
			c52.2,0,94.6-42.3,94.6-94.6c0-52.2-42.3-94.6-94.6-94.6c-35.1,0-65.8,19.1-82.1,47.5l18.3-6.9l5.3,14
			c12.8-18.7,34.3-30.9,58.5-30.9c39.1,0,70.9,31.8,70.9,70.9s-31.8,70.9-70.9,70.9s-70.9-31.8-70.9-70.9c0-3.9,0.3-7.6,0.9-11.3
			l18.6,8.4l-1-2.8l-10.3-27.3l-5.2-13.7l-17.8,6.7l-23.3,8.8l-2.8,1L467.2,730.8z"/>
	</g>
</g>
<g id="icon_1_">
	<rect id="FLAT_x5F_circle_1_" x="837.5" y="396.1" width="189.2" height="23.6"/>
	<path id="middle_x5F_circle_1_" d="M1015.4,306.7c-3.6,5.1-7.7,9.8-12.2,14.1c3.1,4,4.7,8.2,4.7,12.3c0,18.1-32.6,38.4-76.3,38.4
		c-43.7,0-76.3-20.3-76.3-38.4c0-4.2,1.8-8.6,5-12.7c-4.4-4.3-8.5-9.1-12.1-14.2c-7.2,8-11.3,17.2-11.3,26.9
		c0,31.3,42.3,56.8,94.6,56.8c52.2,0,94.6-25.4,94.6-56.8C1026.3,323.5,1022.4,314.5,1015.4,306.7z M896.7,299.3
		c10.4-2.9,22.2-4.7,35-4.7c13,0,25.1,1.8,35.6,4.8c5.8-3.9,10.9-8.7,15.1-14.3c-14.6-5.6-32-8.8-50.7-8.8
		c-18.4,0-35.5,3.2-50.1,8.6C885.8,290.5,890.9,295.3,896.7,299.3z"/>
	<path id="upper_x5F_circle_1_" class="st0" d="M838.2,225.8c-1.6,6.9-2.4,14-2.4,21.3c0,52.2,42.3,94.6,94.6,94.6
		c52.2,0,94.6-42.3,94.6-94.6s-42.3-94.6-94.6-94.6c-35.1,0-65.8,19.1-82.1,47.5l18.3-6.9l5.3,14c12.8-18.7,34.3-30.9,58.5-30.9
		c39.1,0,70.9,31.8,70.9,70.9s-31.8,70.9-70.9,70.9s-70.9-31.8-70.9-70.9c0-3.9,0.3-7.6,0.9-11.3l18.6,8.4l-1-2.8l-10.3-27.3
		l-5.2-13.7l-17.8,6.7l-23.3,8.8l-2.8,1L838.2,225.8z"/>
</g>
</svg>
