<?xml version="1.0" standalone="no"?>
<!DOCTYPE svg PUBLIC "-//W3C//DTD SVG 20010904//EN"
 "http://www.w3.org/TR/2001/REC-SVG-20010904/DTD/svg10.dtd">
<svg version="1.0" xmlns="http://www.w3.org/2000/svg"
 width="4135.000000pt" height="4135.000000pt" viewBox="0 0 4135.000000 4135.000000"
 preserveAspectRatio="xMidYMid meet">
<metadata>
Created by potrace 1.11, written by Peter Selinger 2001-2013
</metadata>
<g transform="translate(0.000000,4135.000000) scale(0.100000,-0.100000)"
fill="#000000" stroke="none">
<path d="M21537 41344 c-1 -1 -90 -5 -197 -8 -107 -4 -220 -9 -250 -11 -30 -1
-107 -6 -170 -10 -63 -3 -133 -8 -155 -10 -22 -3 -79 -7 -126 -10 -47 -3 -95
-7 -105 -9 -10 -2 -55 -7 -99 -10 -44 -4 -93 -8 -110 -10 -16 -2 -61 -7 -98
-11 -37 -3 -76 -8 -85 -10 -9 -1 -46 -6 -82 -10 -36 -4 -72 -9 -80 -10 -8 -2
-40 -6 -71 -9 -31 -4 -65 -8 -75 -10 -11 -2 -41 -7 -69 -10 -67 -9 -114 -16
-150 -23 -51 -8 -68 -11 -120 -18 -27 -3 -69 -11 -93 -16 -23 -5 -59 -12 -80
-15 -61 -9 -84 -13 -142 -24 -30 -7 -68 -14 -85 -17 -16 -3 -124 -25 -240 -49
-115 -24 -221 -47 -235 -50 -149 -31 -629 -156 -885 -230 -265 -77 -932 -300
-1030 -344 -11 -5 -105 -42 -210 -83 -104 -41 -284 -115 -400 -165 -192 -82
-248 -107 -430 -192 -97 -45 -502 -246 -600 -298 -248 -132 -576 -316 -673
-378 -29 -19 -54 -34 -56 -34 -2 0 -50 -29 -107 -64 -57 -36 -124 -77 -149
-92 -70 -42 -501 -328 -598 -397 -108 -77 -116 -82 -232 -167 -52 -38 -106
-78 -119 -87 -177 -129 -608 -473 -767 -612 -22 -20 -69 -61 -104 -91 -35 -30
-89 -77 -119 -105 -31 -27 -61 -54 -67 -60 -92 -79 -374 -347 -567 -540 -690
-691 -1315 -1457 -1859 -2280 -169 -256 -481 -765 -474 -772 1 -1 56 18 122
43 65 25 135 51 154 58 19 8 85 32 145 54 61 22 193 73 295 112 102 39 203 77
225 84 22 8 177 66 345 131 168 64 310 118 315 119 6 2 17 6 25 9 8 3 164 62
345 130 182 69 446 168 587 222 142 53 262 94 268 90 5 -3 10 -12 10 -18 0
-11 87 -250 110 -302 5 -11 50 -130 100 -265 50 -135 96 -256 101 -269 6 -14
57 -151 115 -305 58 -155 119 -315 135 -356 40 -105 142 -374 190 -505 23 -60
44 -113 48 -118 4 -4 40 41 81 100 124 180 435 586 554 724 17 19 49 57 71 84
22 27 47 56 55 64 9 9 45 50 80 91 36 41 74 84 85 96 11 12 70 74 130 139 251
269 577 583 854 821 19 16 39 34 45 39 6 6 49 42 96 80 47 38 87 72 90 75 11
12 240 191 325 254 50 37 97 72 105 79 127 102 590 410 865 575 183 109 261
154 438 250 319 174 812 403 1157 539 164 64 501 188 535 197 6 1 82 26 170
54 422 135 974 274 1340 337 17 2 40 7 51 9 12 2 39 7 60 10 80 13 160 26 179
30 11 2 41 6 66 10 25 4 57 9 70 11 13 2 45 6 72 9 26 3 68 9 95 12 26 3 58 7
72 10 14 2 50 6 80 9 30 3 73 7 95 10 22 2 72 7 110 10 39 3 84 8 100 10 27 3
108 9 280 20 352 23 1040 23 1300 1 22 -2 88 -7 146 -10 59 -4 124 -9 145 -11
22 -2 68 -6 104 -10 68 -6 90 -8 235 -25 176 -20 243 -29 290 -36 17 -3 86
-14 155 -25 69 -10 136 -21 150 -24 14 -2 36 -7 50 -10 14 -2 41 -7 60 -10 45
-7 134 -24 185 -36 22 -5 76 -16 120 -24 44 -9 136 -29 204 -46 68 -16 134
-31 147 -33 13 -3 38 -9 56 -15 37 -11 113 -31 137 -36 9 -2 28 -8 44 -14 15
-6 27 -9 27 -7 0 2 21 -3 48 -11 26 -8 101 -30 167 -49 1177 -346 2320 -912
3342 -1655 116 -85 453 -345 463 -358 3 -3 39 -33 80 -66 41 -32 77 -62 80
-65 3 -3 54 -48 115 -100 60 -52 117 -102 125 -110 9 -8 63 -58 120 -110 132
-120 484 -472 615 -615 55 -60 119 -129 142 -154 76 -84 286 -334 406 -486 65
-82 124 -157 130 -165 7 -8 61 -82 121 -165 60 -82 122 -167 138 -187 15 -20
28 -41 28 -47 0 -5 4 -11 8 -13 28 -11 423 -642 574 -918 14 -25 38 -67 53
-95 29 -51 269 -527 293 -581 240 -529 368 -856 520 -1334 60 -188 151 -510
177 -623 2 -10 20 -87 40 -170 52 -218 52 -220 79 -357 22 -109 32 -163 51
-270 5 -30 34 -210 41 -260 3 -19 7 -45 9 -56 2 -12 7 -48 10 -80 4 -33 9 -66
10 -74 2 -9 6 -40 10 -70 6 -56 9 -83 19 -180 3 -30 8 -75 11 -100 6 -50 11
-110 20 -245 4 -49 8 -108 10 -130 24 -263 24 -1117 0 -1365 -2 -19 -6 -82
-10 -140 -3 -58 -8 -121 -10 -140 -2 -19 -7 -64 -10 -100 -3 -36 -8 -81 -10
-100 -2 -19 -7 -57 -10 -85 -9 -85 -15 -136 -19 -164 -3 -14 -8 -51 -11 -81
-3 -30 -8 -62 -10 -70 -2 -8 -6 -37 -10 -65 -3 -27 -13 -90 -21 -140 -9 -49
-17 -101 -19 -115 -2 -14 -9 -50 -15 -80 -6 -30 -13 -67 -15 -82 -13 -71 -46
-232 -65 -318 -12 -52 -24 -105 -26 -116 -2 -12 -27 -111 -54 -220 -157 -620
-379 -1252 -645 -1839 -42 -94 -259 -530 -313 -630 -145 -272 -342 -599 -530
-885 -86 -129 -160 -239 -164 -245 -5 -5 -30 -39 -55 -75 -246 -341 -509 -669
-765 -955 -233 -259 -629 -653 -888 -881 -19 -17 -60 -53 -90 -80 -62 -56
-362 -302 -430 -354 -25 -19 -47 -37 -50 -40 -3 -3 -50 -39 -105 -80 -55 -41
-104 -78 -110 -82 -28 -23 -107 -80 -165 -118 -36 -25 -67 -47 -70 -50 -7 -8
-445 -297 -492 -325 -10 -5 -75 -44 -145 -87 -437 -262 -917 -505 -1385 -702
-86 -36 -160 -66 -164 -66 -3 0 -20 -7 -37 -15 -39 -17 -166 -67 -227 -88 -25
-9 -70 -25 -100 -37 -30 -12 -62 -23 -70 -25 -8 -2 -73 -24 -145 -49 -212 -73
-631 -198 -738 -221 -10 -2 -27 -7 -37 -10 -10 -3 -27 -7 -37 -9 -10 -2 -58
-14 -108 -26 -49 -12 -98 -24 -108 -26 -10 -2 -26 -5 -35 -8 -9 -3 -31 -8 -49
-11 -17 -3 -58 -12 -90 -20 -32 -8 -119 -26 -193 -39 -74 -14 -144 -27 -155
-30 -11 -2 -83 -14 -160 -26 -77 -12 -149 -23 -160 -25 -11 -1 -36 -6 -55 -9
-43 -7 -90 -13 -155 -21 -27 -3 -66 -7 -85 -10 -19 -3 -60 -7 -90 -10 -30 -3
-71 -8 -90 -10 -19 -3 -62 -7 -95 -10 -33 -3 -78 -8 -100 -10 -22 -2 -85 -7
-140 -11 -55 -3 -116 -8 -135 -9 -282 -23 -1039 -23 -1360 0 -30 2 -95 6 -145
10 -93 6 -143 11 -230 20 -28 3 -71 8 -97 10 -47 3 -133 13 -178 20 -14 2 -50
7 -80 10 -202 23 -592 90 -859 146 -79 17 -152 32 -163 34 -11 2 -28 7 -38 10
-10 3 -29 8 -42 10 -43 9 -232 57 -378 96 -392 107 -787 240 -1187 400 -175
70 -206 83 -331 140 -35 16 -65 29 -67 29 -19 0 -534 254 -730 360 -177 96
-403 227 -515 298 -36 23 -78 49 -94 58 -55 31 -323 208 -471 312 -133 93
-462 337 -475 352 -3 3 -25 21 -50 40 -388 298 -981 855 -1346 1265 -176 198
-199 224 -362 424 -615 752 -1181 1682 -1558 2563 -19 45 -41 96 -49 112 -109
247 -379 1012 -420 1193 -2 10 -18 68 -35 128 -66 230 -169 679 -215 930 -13
75 -47 272 -50 290 -1 11 -6 44 -10 74 -3 30 -8 63 -11 74 -2 10 -6 45 -10 76
-3 31 -8 64 -10 74 -2 10 -6 45 -9 78 -4 33 -8 68 -10 77 -3 16 -12 112 -20
197 -2 22 -6 67 -9 100 -42 446 -51 1101 -21 1585 9 148 17 259 20 285 2 17 6
66 10 110 4 44 8 91 10 105 2 14 7 52 10 85 9 82 13 118 25 205 6 41 13 93 16
115 2 22 9 65 14 95 6 30 11 67 12 83 1 15 4 27 5 27 1 0 33 -14 70 -31 129
-59 788 -357 823 -372 19 -8 69 -30 110 -50 41 -19 111 -51 155 -70 44 -19
186 -83 315 -142 129 -58 249 -113 265 -120 17 -7 70 -32 118 -54 49 -23 90
-41 92 -41 1 0 41 -17 87 -39 45 -21 175 -80 288 -131 113 -51 243 -110 288
-131 46 -21 86 -39 88 -39 3 0 43 -18 91 -40 47 -22 87 -39 88 -38 2 3 -187
507 -196 523 -4 6 -12 28 -18 50 -7 22 -17 49 -22 60 -5 11 -20 49 -33 85 -13
36 -52 139 -86 230 -35 91 -71 185 -80 210 -9 25 -20 52 -23 60 -3 8 -23 60
-43 115 -20 55 -41 111 -47 125 -6 14 -11 30 -13 35 -1 6 -18 51 -37 100 -34
88 -266 702 -492 1300 -62 165 -124 329 -138 365 -14 36 -78 205 -142 375 -63
171 -119 319 -124 330 -5 11 -33 83 -61 160 -29 77 -80 214 -115 305 -35 91
-93 246 -129 345 -37 99 -71 189 -76 200 -5 11 -102 268 -216 570 -445 1185
-462 1230 -476 1229 -7 0 -22 -4 -33 -9 -58 -23 -252 -97 -265 -100 -8 -2
-127 -47 -265 -100 -137 -53 -268 -102 -290 -110 -22 -7 -112 -41 -200 -74
-88 -34 -338 -129 -555 -211 -217 -81 -474 -178 -570 -215 -96 -36 -254 -96
-350 -132 -96 -36 -186 -70 -200 -76 -14 -6 -27 -11 -30 -12 -6 -1 -119 -43
-140 -52 -8 -3 -19 -7 -25 -9 -16 -4 -437 -164 -460 -174 -11 -5 -130 -50
-265 -100 -135 -50 -261 -97 -280 -105 -35 -14 -93 -36 -440 -166 -102 -38
-194 -74 -205 -79 -11 -4 -72 -27 -135 -50 -63 -24 -128 -48 -145 -55 -16 -7
-82 -32 -145 -55 -63 -24 -153 -57 -200 -75 -233 -89 -350 -133 -635 -240
-170 -64 -353 -132 -405 -151 -52 -20 -104 -40 -115 -45 -11 -5 -110 -42 -220
-83 l-200 -75 80 -36 c136 -62 155 -71 330 -150 94 -42 235 -106 315 -142 80
-36 177 -81 217 -99 40 -19 75 -34 77 -34 3 0 42 -17 88 -39 78 -36 206 -95
343 -156 413 -186 742 -335 853 -386 45 -22 85 -39 87 -39 3 0 48 -20 101 -45
52 -25 97 -45 98 -45 2 0 48 -21 102 -46 55 -25 117 -54 139 -64 170 -75 205
-94 200 -109 -6 -22 -92 -419 -98 -456 -4 -27 -18 -100 -47 -250 -5 -27 -17
-95 -25 -150 -9 -55 -18 -113 -21 -130 -3 -16 -7 -41 -9 -55 -7 -48 -17 -115
-20 -140 -2 -14 -6 -45 -10 -70 -4 -25 -8 -56 -10 -70 -4 -25 -22 -161 -30
-230 -2 -19 -7 -60 -10 -90 -3 -30 -7 -75 -10 -100 -3 -25 -7 -70 -10 -100 -2
-30 -7 -75 -9 -100 -9 -77 -18 -183 -21 -230 -2 -25 -6 -99 -10 -165 -4 -66
-9 -136 -10 -155 -24 -336 -24 -1239 0 -1585 2 -33 7 -105 10 -160 10 -158 14
-216 20 -275 3 -30 12 -127 20 -215 16 -163 22 -226 30 -280 2 -16 6 -57 10
-90 4 -33 9 -71 11 -85 2 -14 8 -61 14 -105 6 -44 13 -91 15 -105 2 -14 6 -43
9 -65 16 -109 79 -481 96 -565 11 -52 21 -106 24 -120 2 -14 7 -36 10 -50 3
-14 8 -36 10 -50 6 -36 64 -301 87 -400 12 -47 22 -92 24 -100 3 -13 12 -51
29 -120 2 -8 12 -44 21 -80 9 -36 19 -73 20 -83 2 -9 6 -21 9 -25 3 -5 7 -22
10 -38 14 -76 158 -551 251 -829 58 -170 107 -317 109 -325 24 -89 316 -810
406 -1005 15 -33 39 -85 52 -115 101 -227 341 -707 473 -945 89 -159 167 -297
229 -400 84 -141 82 -137 125 -212 19 -32 56 -90 83 -130 26 -40 48 -75 48
-78 0 -3 4 -11 10 -18 5 -7 79 -115 162 -241 177 -265 154 -232 282 -411 85
-119 344 -466 390 -522 9 -10 56 -70 107 -133 81 -101 225 -276 239 -290 5 -5
101 -117 141 -164 13 -16 35 -41 49 -56 14 -15 41 -45 60 -66 395 -441 798
-843 1225 -1221 75 -66 404 -346 455 -386 8 -7 60 -49 115 -93 246 -198 848
-639 982 -719 9 -5 26 -18 37 -27 11 -10 25 -18 32 -18 7 0 14 -3 16 -7 3 -8
95 -73 103 -73 2 0 55 -33 117 -74 110 -71 564 -346 572 -346 2 0 37 -19 78
-43 65 -39 130 -75 308 -170 456 -245 1028 -509 1510 -696 102 -40 212 -83
245 -96 154 -61 579 -206 795 -271 145 -44 420 -125 440 -129 8 -2 49 -13 90
-24 346 -95 1006 -240 1300 -286 35 -6 88 -14 125 -21 11 -2 67 -11 125 -19
58 -9 116 -18 130 -20 14 -2 45 -6 70 -10 25 -3 56 -8 70 -10 14 -2 48 -7 75
-10 104 -11 141 -15 160 -19 11 -2 54 -7 95 -11 41 -3 82 -8 90 -10 8 -2 49
-7 90 -10 41 -3 98 -8 125 -11 49 -4 131 -11 230 -20 28 -2 96 -6 152 -9 56
-3 119 -8 140 -10 231 -24 1336 -24 1643 0 25 2 90 6 145 10 225 14 405 29
490 40 17 2 66 6 110 10 44 4 87 8 95 10 8 3 42 7 75 10 33 4 71 8 85 10 14 2
50 6 80 10 30 3 66 8 80 10 14 3 45 7 70 10 25 3 56 7 70 10 14 2 45 7 70 10
25 3 68 10 95 15 28 5 68 12 90 15 32 4 252 42 340 59 11 2 36 6 55 10 49 9
60 11 205 41 138 28 210 44 425 95 74 18 144 34 155 37 11 2 25 5 30 7 6 2 24
6 40 10 17 5 89 24 160 43 72 20 135 36 140 37 65 14 460 135 690 211 265 88
641 224 677 245 10 5 22 10 27 10 11 0 419 168 566 233 253 112 249 110 595
281 258 127 373 187 645 336 33 18 97 54 143 81 45 27 84 49 87 49 2 0 47 27
100 60 53 33 98 60 100 60 9 0 299 183 505 319 197 130 599 412 675 473 6 5
62 48 125 95 281 211 721 577 965 802 371 340 710 678 995 991 47 51 90 98 95
104 6 6 39 45 75 86 36 41 70 80 75 86 24 26 109 127 190 224 48 58 96 116
108 130 246 289 802 1063 1022 1422 5 9 26 42 45 73 19 31 40 64 45 73 234
390 299 502 445 773 53 99 370 734 370 742 0 2 17 40 37 83 20 43 38 81 38 84
1 3 8 21 17 40 170 376 362 870 508 1310 42 127 66 202 150 475 11 33 42 143
69 245 28 102 56 205 62 230 7 25 13 50 15 55 1 6 18 75 38 155 19 80 37 156
40 170 3 14 7 34 10 45 13 58 65 293 69 315 12 62 40 207 43 225 3 11 7 35 10
54 3 18 8 43 10 55 12 61 26 146 44 261 6 39 13 81 15 95 2 14 7 43 10 65 3
22 8 52 11 67 6 29 11 64 19 143 3 28 8 61 10 75 2 14 7 50 10 80 3 30 8 66
10 80 4 30 13 103 20 180 3 30 8 71 10 90 2 19 7 69 10 110 3 41 8 95 10 120
8 83 15 164 21 265 3 55 7 125 9 155 25 397 25 1212 0 1640 -11 185 -28 410
-40 535 -2 22 -7 72 -10 110 -3 39 -10 104 -15 145 -5 41 -12 100 -15 130 -4
30 -8 66 -10 80 -2 14 -6 48 -9 75 -6 45 -10 74 -21 155 -2 14 -7 45 -10 70
-3 25 -11 74 -16 110 -6 36 -13 77 -15 93 -2 15 -6 39 -8 55 -2 15 -7 41 -10
57 -3 17 -8 46 -11 65 -5 31 -10 58 -30 165 -3 17 -8 44 -11 60 -3 17 -17 86
-30 155 -14 69 -27 136 -30 150 -3 14 -7 33 -10 42 -3 9 -7 27 -9 40 -17 87
-40 189 -96 413 -22 88 -42 167 -44 175 -6 28 -74 275 -100 365 -14 50 -28 97
-30 105 -5 24 -103 335 -140 445 -86 260 -265 746 -319 868 -7 17 -48 113 -89
212 -132 313 -194 449 -358 780 -116 235 -227 450 -273 530 -13 22 -38 67 -56
100 -44 83 -262 455 -316 540 -25 39 -49 79 -54 90 -21 45 -305 471 -459 690
-71 100 -308 424 -348 475 -182 231 -325 410 -347 434 -6 6 -28 32 -49 58 -21
26 -43 53 -50 60 -7 7 -50 58 -97 113 -47 55 -87 102 -90 105 -3 3 -41 45 -85
94 -227 255 -577 615 -822 846 -178 169 -203 192 -398 366 -121 108 -402 343
-570 477 -82 65 -157 124 -166 132 -139 111 -484 361 -732 529 -152 104 -525
346 -532 346 -2 0 -46 26 -97 58 -172 109 -506 298 -773 439 -125 66 -512 258
-625 310 -36 17 -90 42 -120 56 -266 123 -621 270 -960 397 -226 85 -861 297
-960 321 -19 4 -60 15 -90 24 -55 17 -131 38 -245 70 -59 16 -245 64 -275 70
-8 2 -51 12 -95 24 -44 11 -95 23 -114 26 -19 3 -37 8 -41 10 -3 2 -17 6 -31
9 -13 3 -134 28 -269 55 -208 43 -413 82 -560 106 -19 3 -42 8 -50 10 -8 2
-35 6 -60 9 -25 3 -56 8 -70 11 -14 3 -46 7 -71 10 -25 3 -55 7 -66 9 -11 3
-44 7 -73 11 -29 4 -62 8 -73 11 -11 2 -43 6 -71 9 -105 11 -135 15 -163 19
-15 3 -55 8 -88 11 -68 6 -144 14 -195 20 -49 6 -131 13 -230 21 -47 3 -101 8
-120 9 -19 2 -82 6 -140 10 -58 4 -132 8 -165 10 -208 13 -1117 28 -1128 19z"/>
<path d="M21538 22194 c-2 -1 -106 -5 -233 -9 -126 -3 -268 -8 -315 -10 -47
-3 -134 -7 -193 -10 -169 -8 -407 -23 -491 -31 -28 -2 -84 -6 -125 -9 -76 -5
-157 -12 -241 -20 -25 -2 -70 -7 -100 -9 -30 -3 -86 -8 -125 -12 -38 -3 -77
-7 -86 -9 -8 -2 -55 -6 -105 -10 -49 -4 -92 -9 -95 -11 -3 -1 -39 -6 -80 -10
-41 -3 -82 -8 -92 -10 -10 -2 -46 -6 -80 -9 -34 -3 -73 -8 -87 -10 -29 -5
-167 -23 -225 -29 -45 -6 -48 -6 -280 -41 -93 -14 -186 -27 -205 -30 -66 -10
-175 -27 -195 -31 -11 -2 -47 -9 -80 -14 -70 -12 -93 -16 -200 -35 -44 -8 -96
-17 -115 -20 -49 -8 -435 -83 -490 -96 -25 -5 -157 -34 -295 -65 -302 -67
-243 -53 -470 -108 -330 -81 -833 -219 -1125 -311 -63 -20 -122 -38 -130 -40
-64 -15 -769 -257 -932 -320 -15 -6 -8 -19 44 -88 34 -45 65 -84 68 -87 3 -3
19 -23 36 -45 16 -22 37 -49 46 -60 9 -11 53 -65 99 -120 45 -55 100 -121 123
-146 22 -26 66 -75 96 -109 115 -131 191 -211 395 -415 240 -240 323 -316 562
-523 108 -92 340 -278 474 -378 121 -91 118 -89 261 -189 l107 -76 98 26 c54
14 112 30 129 36 17 5 40 11 50 13 11 2 39 9 64 16 25 7 52 14 60 16 8 2 48
12 88 23 39 10 72 17 72 15 0 -2 11 1 25 6 14 5 36 12 48 15 12 2 90 20 172
40 143 33 361 81 415 91 14 2 36 7 50 10 14 3 34 8 45 10 11 2 55 11 98 20 42
8 90 17 105 20 25 4 40 7 102 19 14 3 41 8 60 11 19 3 42 7 50 9 8 3 33 7 55
10 22 4 47 8 55 10 8 3 33 7 55 10 22 3 51 8 65 11 64 12 77 14 111 19 20 3
52 8 70 10 19 3 43 7 54 9 17 3 122 19 205 31 27 4 98 14 140 20 14 2 48 7 75
10 28 4 62 8 76 11 15 2 47 6 70 9 24 3 60 7 79 10 60 8 203 24 260 30 58 5
132 13 190 20 19 3 67 7 105 10 39 4 86 8 105 10 19 2 76 6 125 10 50 3 101 8
115 10 14 2 72 7 130 10 58 4 121 8 140 10 39 4 248 16 355 20 39 2 149 7 245
11 355 17 1568 10 1885 -11 33 -2 112 -7 175 -10 63 -3 135 -8 160 -10 25 -3
86 -7 135 -10 50 -3 113 -7 140 -10 95 -8 190 -17 230 -20 50 -3 238 -22 305
-30 19 -2 64 -7 100 -10 36 -3 76 -8 90 -10 14 -2 52 -7 85 -10 33 -3 69 -8
80 -10 11 -2 47 -7 80 -10 33 -3 67 -8 75 -10 8 -2 40 -6 70 -10 30 -3 66 -7
80 -10 39 -6 91 -13 145 -20 28 -4 57 -8 65 -10 8 -2 38 -7 65 -11 28 -3 59
-8 70 -10 11 -2 38 -7 60 -9 36 -5 94 -14 180 -30 17 -3 57 -10 90 -15 100
-17 118 -20 165 -29 25 -5 86 -17 135 -26 50 -9 119 -23 155 -30 36 -8 81 -17
100 -20 19 -3 77 -15 129 -26 51 -11 101 -22 110 -24 19 -4 138 -31 231 -52
36 -8 76 -17 89 -19 14 -3 28 -7 31 -9 4 -2 20 -7 36 -9 53 -10 68 -14 124
-29 30 -9 154 -41 275 -72 121 -31 247 -66 279 -76 33 -10 68 -19 79 -19 33 0
379 246 631 449 65 53 135 108 154 123 68 53 261 223 402 352 183 169 559 556
716 736 21 25 41 47 44 50 3 3 32 37 64 75 32 39 75 91 97 116 66 79 239 302
239 308 0 3 -33 18 -73 33 -39 14 -117 43 -172 63 -160 60 -514 181 -720 247
-619 197 -1332 387 -1935 514 -41 9 -82 17 -90 19 -26 6 -414 84 -443 89 -15
3 -54 10 -87 16 -33 5 -72 13 -87 16 -54 10 -549 93 -593 99 -25 3 -52 8 -60
10 -8 2 -37 6 -65 10 -27 3 -77 10 -110 15 -33 5 -82 12 -110 15 -27 4 -61 8
-75 11 -14 2 -50 6 -80 10 -30 3 -64 8 -75 10 -11 2 -46 7 -77 10 -32 3 -66 7
-77 9 -11 2 -51 7 -88 10 -37 4 -75 9 -83 10 -8 2 -46 6 -85 10 -38 3 -86 8
-105 10 -19 3 -62 7 -95 10 -33 4 -76 8 -95 10 -19 2 -66 6 -105 10 -38 3 -88
8 -110 10 -22 2 -78 7 -125 10 -47 3 -101 8 -120 10 -19 2 -78 7 -130 10 -52
4 -120 8 -150 10 -52 3 -167 10 -345 20 -45 3 -141 7 -215 10 -74 3 -189 8
-255 11 -127 5 -1343 13 -1347 8z"/>
<path d="M9100 17478 c-117 -137 -129 -150 -148 -173 -212 -250 -573 -768
-698 -1000 -15 -28 -104 -187 -114 -205 -31 -52 -188 -379 -236 -491 -58 -137
-152 -384 -178 -468 -8 -25 -26 -84 -41 -131 -30 -98 -71 -248 -91 -335 -8
-33 -16 -69 -19 -80 -17 -71 -62 -312 -69 -369 -3 -23 -16 -107 -22 -146 -2
-14 -6 -56 -10 -95 -3 -38 -7 -81 -10 -95 -23 -142 -22 -803 1 -960 2 -14 7
-56 11 -95 11 -113 12 -121 18 -151 3 -16 8 -49 11 -74 9 -67 14 -93 41 -230
14 -69 26 -134 28 -145 2 -11 6 -30 10 -42 7 -21 12 -44 22 -93 3 -14 12 -50
21 -80 9 -30 18 -59 19 -65 4 -21 77 -262 89 -295 8 -19 28 -75 45 -125 108
-303 288 -687 468 -997 12 -21 31 -55 43 -75 35 -63 170 -273 238 -373 151
-221 468 -628 598 -768 14 -15 46 -51 72 -81 68 -80 552 -565 650 -652 46 -41
94 -83 106 -94 50 -46 107 -95 215 -185 63 -52 117 -97 120 -100 6 -6 230
-183 276 -217 16 -12 81 -60 144 -107 63 -47 120 -89 125 -94 30 -24 292 -203
430 -293 150 -99 188 -123 348 -222 434 -270 1198 -675 1607 -852 41 -18 104
-46 140 -63 96 -46 393 -171 644 -272 324 -129 567 -218 1026 -373 191 -65
606 -190 965 -292 58 -16 280 -75 307 -81 10 -2 26 -6 36 -9 41 -11 421 -104
443 -109 13 -3 128 -28 254 -56 127 -29 241 -54 255 -56 14 -3 70 -14 125 -25
55 -11 111 -22 125 -25 14 -2 81 -15 150 -29 69 -13 152 -29 185 -34 91 -16
118 -20 140 -25 11 -2 40 -7 65 -11 25 -4 52 -9 61 -10 9 -2 34 -6 55 -9 22
-4 80 -13 129 -21 50 -8 108 -17 130 -20 22 -3 51 -7 65 -9 14 -3 60 -10 103
-16 43 -6 88 -13 100 -15 12 -2 45 -6 72 -10 51 -6 58 -7 185 -24 76 -11 137
-18 200 -26 90 -11 148 -17 180 -21 53 -5 130 -13 175 -19 22 -2 69 -7 105
-10 36 -3 81 -7 100 -10 19 -2 62 -6 95 -9 33 -3 87 -8 120 -11 100 -8 230
-19 370 -30 126 -9 491 -30 700 -40 546 -25 1578 -25 2095 0 36 2 132 6 215
10 82 4 172 8 200 10 27 2 94 6 148 10 53 3 116 8 140 10 23 2 85 6 137 10 52
3 113 8 135 11 22 3 67 7 100 9 53 3 126 9 235 20 111 11 159 16 190 20 19 2
64 7 100 11 36 3 73 8 83 10 10 2 48 6 85 9 37 3 78 8 92 10 14 2 50 6 80 10
30 4 66 8 80 10 14 2 50 7 80 10 30 4 62 8 70 10 8 1 42 6 75 10 63 8 75 10
140 20 22 3 58 8 80 11 22 4 49 8 60 10 11 1 38 5 60 9 22 3 65 10 95 15 30 6
78 12 105 15 28 3 57 8 65 10 16 5 70 14 110 20 14 2 88 15 165 29 77 14 154
28 170 30 17 3 41 8 55 11 14 3 39 8 55 11 17 3 84 16 150 29 66 13 132 26
148 29 15 3 35 7 45 10 9 3 28 7 42 10 56 9 192 39 315 67 72 17 141 33 155
35 14 3 59 14 100 24 41 10 86 21 100 24 14 3 63 15 110 27 47 11 92 22 100
24 8 2 49 13 90 24 235 63 301 81 360 96 36 10 72 20 80 23 8 3 20 6 25 7 22
6 326 95 366 109 24 8 98 31 164 51 203 63 682 226 810 274 28 11 104 40 170
65 411 153 844 336 1271 536 116 55 564 278 634 317 30 17 87 47 125 68 133
71 290 159 368 207 43 26 81 48 84 48 11 0 375 228 571 357 352 232 665 461
947 691 209 171 266 219 280 236 6 6 23 22 39 34 107 83 623 589 791 776 218
242 484 579 657 831 287 419 529 871 703 1315 115 293 227 661 268 880 3 14
14 70 26 125 11 55 22 120 26 145 3 25 8 56 10 70 9 50 29 206 39 305 13 122
21 326 20 525 -1 225 -7 349 -29 560 -9 89 -38 290 -50 350 -3 14 -7 36 -10
50 -3 14 -10 52 -16 85 -5 33 -17 85 -24 115 -8 30 -16 66 -19 80 -6 31 -42
167 -63 240 -9 30 -18 60 -19 65 -17 86 -191 551 -271 725 -104 225 -273 546
-375 710 -124 201 -242 375 -367 545 -52 72 -98 132 -101 135 -3 3 -41 50 -85
105 -133 168 -247 297 -254 288 -4 -4 -25 -33 -46 -63 -34 -48 -294 -396 -316
-424 -5 -6 -66 -83 -136 -171 -132 -166 -291 -359 -398 -480 -34 -38 -72 -83
-86 -99 -13 -16 -33 -39 -44 -50 -11 -12 -40 -44 -64 -71 -188 -211 -419 -453
-643 -673 l-147 -145 43 -56 c208 -270 425 -670 531 -981 32 -93 69 -213 67
-217 -1 -2 5 -21 13 -43 8 -22 12 -40 10 -40 -2 0 0 -14 5 -32 5 -17 12 -50
16 -72 3 -23 10 -63 15 -91 24 -122 33 -469 16 -618 -67 -607 -357 -1229 -851
-1827 -39 -47 -75 -90 -81 -96 -5 -6 -56 -62 -112 -125 -148 -165 -385 -393
-593 -571 -209 -180 -570 -453 -785 -594 -49 -32 -94 -63 -100 -67 -16 -13
-145 -96 -218 -140 -37 -23 -89 -55 -115 -71 -56 -34 -343 -199 -427 -246
-260 -143 -636 -329 -930 -460 -72 -32 -161 -72 -198 -89 -37 -17 -73 -31 -80
-31 -7 0 -17 -4 -22 -9 -13 -12 -444 -182 -655 -259 -283 -103 -731 -253 -900
-301 -19 -5 -66 -19 -105 -31 -38 -12 -77 -23 -85 -25 -8 -2 -64 -18 -125 -35
-288 -80 -376 -103 -585 -154 -311 -76 -758 -173 -920 -201 -19 -3 -42 -8 -50
-10 -8 -2 -31 -7 -50 -10 -19 -3 -42 -8 -50 -10 -8 -2 -35 -7 -60 -10 -25 -3
-52 -8 -61 -11 -10 -3 -31 -6 -49 -9 -17 -2 -45 -7 -61 -10 -17 -4 -40 -8 -52
-10 -21 -3 -264 -41 -317 -50 -51 -8 -86 -14 -130 -19 -25 -3 -54 -8 -65 -10
-11 -2 -45 -7 -76 -10 -31 -4 -66 -8 -76 -10 -11 -3 -44 -7 -74 -11 -30 -3
-65 -8 -79 -10 -14 -2 -50 -6 -80 -10 -30 -3 -71 -8 -90 -10 -75 -9 -208 -24
-270 -30 -36 -4 -76 -8 -90 -10 -14 -2 -59 -6 -100 -10 -41 -3 -95 -8 -120
-11 -80 -8 -233 -20 -375 -29 -162 -11 -212 -14 -320 -20 -60 -3 -137 -8 -170
-10 -295 -20 -1438 -28 -1795 -12 -96 4 -220 10 -275 12 -55 2 -143 7 -195 11
-52 3 -124 7 -160 9 -36 2 -94 6 -130 9 -36 2 -101 8 -145 11 -44 4 -100 8
-125 10 -25 3 -79 7 -120 10 -41 3 -86 8 -100 10 -14 2 -63 7 -110 11 -47 3
-92 7 -100 9 -8 2 -44 6 -80 9 -66 7 -110 12 -177 21 -21 2 -58 7 -83 10 -79
9 -134 16 -156 20 -12 2 -48 7 -80 10 -33 4 -68 9 -79 11 -11 2 -45 6 -75 9
-30 4 -62 8 -70 10 -8 2 -35 7 -60 10 -25 3 -70 10 -100 15 -30 5 -72 11 -92
14 -54 8 -107 17 -132 22 -11 2 -41 7 -66 10 -25 3 -75 12 -112 20 -37 7 -80
16 -95 18 -158 28 -205 36 -246 45 -26 6 -62 14 -80 16 -27 5 -317 65 -382 80
-11 2 -42 9 -70 15 -80 18 -159 36 -340 80 -93 23 -177 43 -185 45 -13 3 -61
16 -260 68 -99 27 -412 117 -545 158 -1082 335 -2020 732 -2875 1217 -183 104
-598 359 -675 415 -22 16 -98 69 -170 119 -626 434 -1179 949 -1561 1453 -63
83 -204 283 -204 289 0 2 -28 48 -62 102 -81 129 -215 399 -273 548 -74 191
-140 429 -160 574 -3 20 -8 47 -10 59 -19 88 -26 441 -12 583 10 98 34 240 54
315 8 33 17 69 19 81 9 47 89 286 127 379 43 104 132 287 190 390 19 33 44 78
57 100 27 49 202 312 227 343 49 59 85 112 81 121 -1 6 -100 108 -218 228
-300 304 -404 417 -719 778 -58 67 -330 398 -386 470 -33 42 -65 82 -70 88
-11 12 -193 251 -228 298 -10 13 -65 89 -123 169 -58 80 -108 148 -112 151 -4
4 -45 -38 -92 -93z"/>
<path d="M7505 1830 l0 -1830 14635 2 14635 3 1 1828 1 1827 -14636 0 -14636
0 0 -1830z"/>
</g>
</svg>
