<?xml version="1.0" encoding="utf-8"?>
<!-- Generator: Adobe Illustrator 21.0.2, SVG Export Plug-In . SVG Version: 6.00 Build 0)  -->
<svg version="1.1" id="Flat_x5F_Circle_x5F_PROJECT"
	 xmlns="http://www.w3.org/2000/svg" xmlns:xlink="http://www.w3.org/1999/xlink" x="0px" y="0px" viewBox="0 0 1920 4453"
	 style="enable-background:new 0 0 1920 4453;" xml:space="preserve">
<style type="text/css">
	.st0{fill:#0099FF;}
	.st1{font-family:'ArialMT';}
	.st2{font-size:45.3585px;}
	.st3{font-family:'MyriadPro-Regular';}
	.st4{fill:#FFFFFF;}
</style>
<rect id="BG" y="1841" class="st0" width="1920" height="1140"/>
<g id="COLOR_x5F_INFO">
	<g id="BLUE">
		<circle class="st0" cx="536.5" cy="1331.8" r="70.5"/>
		<text transform="matrix(1 0 0 1 641.8789 1343.9019)" class="st0 st1 st2">Blue Color </text>
		<text transform="matrix(1 0 0 1 641.8789 1403.813)" class="st0 st1 st2">#0099ff</text>
		<text transform="matrix(1 0 0 1 641.8789 1492.813)" class="st0 st1 st2">R 0</text>
		<text transform="matrix(1 0 0 1 641.8789 1551.813)" class="st0 st1 st2">G 153</text>
		<text transform="matrix(1 0 0 1 641.8789 1610.813)" class="st0 st1 st2">B 255</text>
	</g>
	<g id="BLACK">
		<circle cx="1054.5" cy="1331.8" r="70.5"/>
		<text transform="matrix(1 0 0 1 1168.8789 1403.813)" class="st1 st2">#000000</text>
		<text transform="matrix(1 0 0 1 1168.8789 1492.813)" class="st1 st2">R 0</text>
		<text transform="matrix(1 0 0 1 1168.8789 1551.813)" class="st1 st2">G 0</text>
		<text transform="matrix(1 0 0 1 1168.8789 1610.813)" class="st1 st2">B 0</text>
		<text transform="matrix(1 0 0 1 1168.8789 1345.1167)" class="st3 st2">Black Color </text>
	</g>
	<rect id="LINE" x="917" y="1227" width="6" height="399"/>
</g>
<g id="black">
	<g id="text_2_">
		<path id="E_2_" d="M1155.8,4071.8c-17.5,0-29-10.1-29-27.7c0-16.6,10.5-27.7,26.6-27.7c15.1,0,23.7,9.5,23.7,24.7v7.3h-33.8
			c0.9,5.4,4.8,8.3,14.4,8.3c7.8,0,14.6-2.5,18.9-4.5v13.9C1173,4069.1,1164.6,4071.8,1155.8,4071.8z M1143.2,4038.4h18.1
			c0-4.6-2.4-8.5-9-8.5C1146.3,4029.9,1143.6,4033.8,1143.2,4038.4z"/>
		<path id="I_5_" d="M1118.8,3999.5v71.2h-16.1v-69.2L1118.8,3999.5z"/>
		<path id="C_5_" d="M1094.6,4037.2c-5.2-3.6-11.3-5.6-17.4-5.6c-8.2,0-13.2,4.8-13.2,12.6c0,7.4,5,12.6,13.1,12.6
			c6.2,0,12.3-2,17.5-5.6v16c-4.6,3.1-11.2,4.7-18.2,4.7c-16.4,0-28.7-12-28.7-27.7c0-16.2,12.5-27.7,28.9-27.7
			c6.9,0,13.4,1.5,18,4.7V4037.2z"/>
		<path id="R_2_" d="M1021.6,4017.5v6.3c3.9-3.6,10.3-7.3,17.1-7.3c1.7,0,3.4,0.3,5,0.8v17.2c-2.5-1.3-6.4-2.4-10.7-2.4
			c-4,0-7.7,0.9-10.5,2.1v36.6h-16.1v-53.3H1021.6z"/>
		<path id="I_4_" d="M977.2,4004.4c0-5.1,4-8.1,10.7-8.1c6.7,0,10.6,2.9,10.6,8.1s-3.8,8.2-10.6,8.2
			C981.2,4012.5,977.2,4009.5,977.2,4004.4z M995.8,4017.5v53.3h-16.1v-53.3H995.8z"/>
		<path id="C_4_" d="M912,4036.3c0-21,15.8-35.7,37.3-35.7c10.3,0,16.4,2.4,21.8,5.4v17.5c-4.5-3.3-11.6-6.8-20.8-6.8
			c-12.1,0-20.2,7.5-20.2,19.6c0,12.1,8.2,19.6,20.2,19.6c9.3,0,16.3-3.5,20.8-6.8v17.5c-5.4,3-11.6,5.4-21.8,5.4
			C927.8,4072,912,4057.3,912,4036.3z"/>
		<path id="T_2_" d="M893.5,4071.8c-7.4,0-14.8-2.9-14.8-15.1v-33.5h-8.3v-1.7l13.1-14.1h1.6v10.1h19.8v5.7h-19.8v33
			c0,6.8,3.5,9.7,9.6,9.7c4.4,0,8.3-1.5,10.8-3.2v5.8C903,4070.1,899,4071.8,893.5,4071.8z"/>
		<path id="A_2_" d="M839.3,4022.7c-8.9,0-15.9,4.3-20.3,9.1v-6.8c3.4-3.7,11.3-8.5,20.9-8.5c10.8,0,20.5,5.6,20.5,20.8v33.5h-5.9
			v-8.1c-4.3,4.7-11.1,9.1-19.4,9.1c-10.9,0-16.5-5.5-16.5-13.8c0-9.2,8.5-16.2,23-16.2c5.4,0,9.9,0.9,12.5,1.8v-6.4
			C854.1,4026.6,847.1,4022.7,839.3,4022.7z M854.1,4058.5v-10.5c-2.6-0.8-6.8-1.6-10.7-1.6c-12.7,0-18.7,4.8-18.7,11.3
			c0,6.3,4.9,8.9,11.2,8.9C843,4066.6,849.4,4062.8,854.1,4058.5z"/>
		<path id="L_2_" d="M805.6,4000.3v70.5h-6.4v-69.2L805.6,4000.3z"/>
		<path id="F_2_" d="M787.7,4001.6v6.2h-41v26.7h35.9v6.2h-35.9v30.1h-6.6v-69.2H787.7z"/>
	</g>
	<g id="icon_2_">
		<rect id="FLAT_x5F_circle_2_" x="742.8" y="3928.4" width="436" height="54.5"/>
		<path id="middle_x5F_circle_2_" d="M1152.9,3722.2c-8.4,11.7-17.7,22.6-28.1,32.5c7,9.3,10.8,18.9,10.8,28.3
			c0,41.8-75.2,88.6-175.8,88.6s-175.8-46.8-175.8-88.6c0-9.7,4.1-19.7,11.6-29.4c-10.2-10-19.5-20.9-27.8-32.6
			c-16.6,18.5-26,39.6-26,62c0,72.2,97.6,130.8,218,130.8s218-58.6,218-130.8C1177.9,3761.1,1168.9,3740.4,1152.9,3722.2z
			 M879.2,3705.2c23.9-6.7,51.2-10.8,80.7-10.8c30,0,57.8,4.2,82,11.1c13.4-9,25.1-20.2,34.8-33c-33.8-12.9-73.8-20.3-116.8-20.3
			c-42.4,0-81.9,7.3-115.4,19.8C854.1,3684.9,865.9,3696.1,879.2,3705.2z"/>
		<path id="upper_x5F_circle_2_" d="M744.4,3535.8c-3.7,15.8-5.6,32.3-5.6,49.2c0,120.4,97.6,218,218,218s218-97.6,218-218
			c0-120.4-97.6-218-218-218c-80.9,0-151.6,44.1-189.2,109.6l42.1-15.9l12.1,32.2c29.5-43,79-71.3,135-71.3
			c90.2,0,163.5,73.4,163.5,163.5c0,90.2-73.4,163.5-163.5,163.5c-90.2,0-163.5-73.4-163.5-163.5c0-8.9,0.7-17.6,2.1-26.1l42.9,19.4
			l-2.4-6.4l-23.8-63l-11.9-31.6l-41,15.5l-53.6,20.2l-6.4,2.4L744.4,3535.8z"/>
	</g>
</g>
<g id="white">
	<g id="text_1_">
		<path id="E_1_" class="st4" d="M1155.8,2781.8c-17.5,0-29-10.1-29-27.7c0-16.6,10.5-27.7,26.6-27.7c15.1,0,23.7,9.5,23.7,24.7v7.3
			h-33.8c0.9,5.4,4.8,8.3,14.4,8.3c7.8,0,14.6-2.5,18.9-4.5v13.9C1173,2779.1,1164.6,2781.8,1155.8,2781.8z M1143.2,2748.4h18.1
			c0-4.6-2.4-8.5-9-8.5C1146.3,2739.9,1143.6,2743.8,1143.2,2748.4z"/>
		<path id="I_3_" class="st4" d="M1118.8,2709.5v71.2h-16.1v-69.2L1118.8,2709.5z"/>
		<path id="C_3_" class="st4" d="M1094.6,2747.2c-5.2-3.6-11.3-5.6-17.4-5.6c-8.2,0-13.2,4.8-13.2,12.6c0,7.4,5,12.6,13.1,12.6
			c6.2,0,12.3-2,17.5-5.6v16c-4.6,3.1-11.2,4.7-18.2,4.7c-16.4,0-28.7-12-28.7-27.7c0-16.2,12.5-27.7,28.9-27.7
			c6.9,0,13.4,1.5,18,4.7V2747.2z"/>
		<path id="R_1_" class="st4" d="M1021.6,2727.5v6.3c3.9-3.6,10.3-7.3,17.1-7.3c1.7,0,3.4,0.3,5,0.8v17.2c-2.5-1.3-6.4-2.4-10.7-2.4
			c-4,0-7.7,0.9-10.5,2.1v36.6h-16.1v-53.3H1021.6z"/>
		<path id="I_2_" class="st4" d="M977.2,2714.4c0-5.1,4-8.1,10.7-8.1c6.7,0,10.6,2.9,10.6,8.1s-3.8,8.2-10.6,8.2
			C981.2,2722.5,977.2,2719.5,977.2,2714.4z M995.8,2727.5v53.3h-16.1v-53.3H995.8z"/>
		<path id="C_2_" class="st4" d="M912,2746.3c0-21,15.8-35.7,37.3-35.7c10.3,0,16.4,2.4,21.8,5.4v17.5c-4.5-3.3-11.6-6.8-20.8-6.8
			c-12.1,0-20.2,7.5-20.2,19.6c0,12.1,8.2,19.6,20.2,19.6c9.3,0,16.3-3.5,20.8-6.8v17.5c-5.4,3-11.6,5.4-21.8,5.4
			C927.8,2782,912,2767.3,912,2746.3z"/>
		<path id="T_1_" class="st4" d="M893.5,2781.8c-7.4,0-14.8-2.9-14.8-15.1v-33.5h-8.3v-1.7l13.1-14.1h1.6v10.1h19.8v5.7h-19.8v33
			c0,6.8,3.5,9.7,9.6,9.7c4.4,0,8.3-1.5,10.8-3.2v5.8C903,2780.1,899,2781.8,893.5,2781.8z"/>
		<path id="A_1_" class="st4" d="M839.3,2732.7c-8.9,0-15.9,4.3-20.3,9.1v-6.8c3.4-3.7,11.3-8.5,20.9-8.5c10.8,0,20.5,5.6,20.5,20.8
			v33.5h-5.9v-8.1c-4.3,4.7-11.1,9.1-19.4,9.1c-10.9,0-16.5-5.5-16.5-13.8c0-9.2,8.5-16.2,23-16.2c5.4,0,9.9,0.9,12.5,1.8v-6.4
			C854.1,2736.6,847.1,2732.7,839.3,2732.7z M854.1,2768.5v-10.5c-2.6-0.8-6.8-1.6-10.7-1.6c-12.7,0-18.7,4.8-18.7,11.3
			c0,6.3,4.9,8.9,11.2,8.9C843,2776.6,849.4,2772.8,854.1,2768.5z"/>
		<path id="L_1_" class="st4" d="M805.6,2710.3v70.5h-6.4v-69.2L805.6,2710.3z"/>
		<path id="F_1_" class="st4" d="M787.7,2711.6v6.2h-41v26.7h35.9v6.2h-35.9v30.1h-6.6v-69.2H787.7z"/>
	</g>
	<g id="icon_1_">
		<rect id="FLAT_x5F_circle_1_" x="742.8" y="2638.4" class="st4" width="436" height="54.5"/>
		<path id="middle_x5F_circle_1_" class="st4" d="M1152.9,2432.2c-8.4,11.7-17.7,22.6-28.1,32.5c7,9.3,10.8,18.9,10.8,28.3
			c0,41.8-75.2,88.6-175.8,88.6s-175.8-46.8-175.8-88.6c0-9.7,4.1-19.7,11.6-29.4c-10.2-10-19.5-20.9-27.8-32.6
			c-16.6,18.5-26,39.6-26,62c0,72.2,97.6,130.8,218,130.8s218-58.6,218-130.8C1177.9,2471.1,1168.9,2450.4,1152.9,2432.2z
			 M879.2,2415.2c23.9-6.7,51.2-10.8,80.7-10.8c30,0,57.8,4.2,82,11.1c13.4-9,25.1-20.2,34.8-33c-33.8-12.9-73.8-20.3-116.8-20.3
			c-42.4,0-81.9,7.3-115.4,19.8C854.1,2394.9,865.9,2406.1,879.2,2415.2z"/>
		<path id="upper_x5F_circle_1_" class="st4" d="M744.4,2245.8c-3.7,15.8-5.6,32.3-5.6,49.2c0,120.4,97.6,218,218,218
			s218-97.6,218-218c0-120.4-97.6-218-218-218c-80.9,0-151.6,44.1-189.2,109.6l42.1-15.9l12.1,32.2c29.5-43,79-71.3,135-71.3
			c90.2,0,163.5,73.4,163.5,163.5c0,90.2-73.4,163.5-163.5,163.5c-90.2,0-163.5-73.4-163.5-163.5c0-8.9,0.7-17.6,2.1-26.1l42.9,19.4
			l-2.4-6.4l-23.8-63l-11.9-31.6l-41,15.5l-53.6,20.2l-6.4,2.4L744.4,2245.8z"/>
	</g>
</g>
<g id="blue">
	<g id="text">
		<path id="E" class="st0" d="M1155.8,989.8c-17.5,0-29-10.1-29-27.7c0-16.6,10.5-27.7,26.6-27.7c15.1,0,23.7,9.5,23.7,24.7v7.3
			h-33.8c0.9,5.4,4.8,8.3,14.4,8.3c7.8,0,14.6-2.5,18.9-4.5v13.9C1173,987.1,1164.6,989.8,1155.8,989.8z M1143.2,956.4h18.1
			c0-4.6-2.4-8.5-9-8.5C1146.3,947.9,1143.6,951.8,1143.2,956.4z"/>
		<path id="I_1_" class="st0" d="M1118.8,917.5v71.2h-16.1v-69.2L1118.8,917.5z"/>
		<path id="C_1_" class="st0" d="M1094.6,955.2c-5.2-3.6-11.3-5.6-17.4-5.6c-8.2,0-13.2,4.8-13.2,12.6c0,7.4,5,12.6,13.1,12.6
			c6.2,0,12.3-2,17.5-5.6v16c-4.6,3.1-11.2,4.7-18.2,4.7c-16.4,0-28.7-12-28.7-27.7c0-16.2,12.5-27.7,28.9-27.7
			c6.9,0,13.4,1.5,18,4.7V955.2z"/>
		<path id="R" class="st0" d="M1021.6,935.5v6.3c3.9-3.6,10.3-7.3,17.1-7.3c1.7,0,3.4,0.3,5,0.8v17.2c-2.5-1.3-6.4-2.4-10.7-2.4
			c-4,0-7.7,0.9-10.5,2.1v36.6h-16.1v-53.3H1021.6z"/>
		<path id="I" class="st0" d="M977.2,922.4c0-5.1,4-8.1,10.7-8.1c6.7,0,10.6,2.9,10.6,8.1c0,5.1-3.8,8.2-10.6,8.2
			C981.2,930.5,977.2,927.5,977.2,922.4z M995.8,935.5v53.3h-16.1v-53.3H995.8z"/>
		<path id="C" class="st0" d="M912,954.3c0-21,15.8-35.7,37.3-35.7c10.3,0,16.4,2.4,21.8,5.4v17.5c-4.5-3.3-11.6-6.8-20.8-6.8
			c-12.1,0-20.2,7.5-20.2,19.6c0,12.1,8.2,19.6,20.2,19.6c9.3,0,16.3-3.5,20.8-6.8v17.5c-5.4,3-11.6,5.4-21.8,5.4
			C927.8,990,912,975.3,912,954.3z"/>
		<path id="T" d="M893.5,989.8c-7.4,0-14.8-2.9-14.8-15.1v-33.5h-8.3v-1.7l13.1-14.1h1.6v10.1h19.8v5.7h-19.8v33
			c0,6.8,3.5,9.7,9.6,9.7c4.4,0,8.3-1.5,10.8-3.2v5.8C903,988.1,899,989.8,893.5,989.8z"/>
		<path id="A" d="M839.3,940.7c-8.9,0-15.9,4.3-20.3,9.1v-6.8c3.4-3.7,11.3-8.5,20.9-8.5c10.8,0,20.5,5.6,20.5,20.8v33.5h-5.9v-8.1
			c-4.3,4.7-11.1,9.1-19.4,9.1c-10.9,0-16.5-5.5-16.5-13.8c0-9.2,8.5-16.2,23-16.2c5.4,0,9.9,0.9,12.5,1.8v-6.4
			C854.1,944.6,847.1,940.7,839.3,940.7z M854.1,976.5v-10.5c-2.6-0.8-6.8-1.6-10.7-1.6c-12.7,0-18.7,4.8-18.7,11.3
			c0,6.3,4.9,8.9,11.2,8.9C843,984.6,849.4,980.8,854.1,976.5z"/>
		<path id="L" d="M805.6,918.3v70.5h-6.4v-69.2L805.6,918.3z"/>
		<path id="F" d="M787.7,919.6v6.2h-41v26.7h35.9v6.2h-35.9v30.1h-6.6v-69.2H787.7z"/>
	</g>
	<g id="icon">
		<rect id="FLAT_x5F_circle" x="742.8" y="846.4" width="436" height="54.5"/>
		<path id="middle_x5F_circle" d="M1152.9,640.2c-8.4,11.7-17.7,22.6-28.1,32.5c7,9.3,10.8,18.9,10.8,28.3
			c0,41.8-75.2,88.6-175.8,88.6S784.1,742.8,784.1,701c0-9.7,4.1-19.7,11.6-29.4c-10.2-10-19.5-20.9-27.8-32.6
			c-16.6,18.5-26,39.6-26,62c0,72.2,97.6,130.8,218,130.8s218-58.6,218-130.8C1177.9,679.1,1168.9,658.4,1152.9,640.2z M879.2,623.2
			c23.9-6.7,51.2-10.8,80.7-10.8c30,0,57.8,4.2,82,11.1c13.4-9,25.1-20.2,34.8-33c-33.8-12.9-73.8-20.3-116.8-20.3
			c-42.4,0-81.9,7.3-115.4,19.8C854.1,602.9,865.9,614.1,879.2,623.2z"/>
		<path id="upper_x5F_circle" class="st0" d="M744.4,453.8c-3.7,15.8-5.6,32.3-5.6,49.2c0,120.4,97.6,218,218,218s218-97.6,218-218
			s-97.6-218-218-218c-80.9,0-151.6,44.1-189.2,109.6l42.1-15.9l12.1,32.2c29.5-43,79-71.3,135-71.3c90.2,0,163.5,73.4,163.5,163.5
			S1047,666.5,956.8,666.5c-90.2,0-163.5-73.4-163.5-163.5c0-8.9,0.7-17.6,2.1-26.1l42.9,19.4l-2.4-6.4l-23.8-63l-11.9-31.6
			l-41,15.5L705.6,431l-6.4,2.4L744.4,453.8z"/>
	</g>
</g>
</svg>
